<svg width="19" height="19" viewBox="0 0 19 19" fill="none" xmlns="http://www.w3.org/2000/svg">
<path d="M7.86965 7.89556C10.05 7.89556 11.8174 6.12808 11.8174 3.94778C11.8174 1.76748 10.05 0 7.86965 0C5.68936 0 3.92188 1.76748 3.92188 3.94778C3.92188 6.12808 5.68936 7.89556 7.86965 7.89556Z" fill="#434345"/>
<path d="M10.3984 15.1128H14.6762V15.9683H10.3984V15.1128Z" fill="#434345"/>
<path d="M6.73455 16.3349V18.1683C6.73455 18.3304 6.79893 18.4858 6.91354 18.6004C7.02815 18.715 7.18358 18.7794 7.34566 18.7794H17.7346C17.8966 18.7794 18.0521 18.715 18.1667 18.6004C18.2813 18.4858 18.3457 18.3304 18.3457 18.1683V12.0572C18.3457 11.8951 18.2813 11.7396 18.1667 11.625C18.0521 11.5104 17.8966 11.4461 17.7346 11.4461H13.4568V10.5477C13.4568 10.3856 13.3924 10.2302 13.2778 10.1156C13.1632 10.001 13.0077 9.93661 12.8457 9.93661C12.6836 9.93661 12.5281 10.001 12.4135 10.1156C12.2989 10.2302 12.2346 10.3856 12.2346 10.5477V11.4461H11.0123V9.25828C9.97386 9.08867 8.92344 9.00283 7.87122 9.00161C5.55071 8.99174 3.2562 9.49027 1.14899 10.4622C0.802179 10.6258 0.509593 10.8856 0.305953 11.2105C0.102312 11.5355 -0.00383527 11.912 0.000105893 12.2955V16.3349H6.73455ZM17.1234 17.5572H7.95677V12.6683H12.2346V12.9249C12.2346 13.087 12.2989 13.2425 12.4135 13.3571C12.5281 13.4717 12.6836 13.5361 12.8457 13.5361C13.0077 13.5361 13.1632 13.4717 13.2778 13.3571C13.3924 13.2425 13.4568 13.087 13.4568 12.9249V12.6683H17.1234V17.5572Z" fill="#434345"/>
</svg>
