<svg width="23" height="22" viewBox="0 0 23 22" fill="none" xmlns="http://www.w3.org/2000/svg">
<path d="M3.87831 18.8247C5.22214 20.1667 7.38181 20.1667 11.703 20.1667C16.0241 20.1667 18.1847 20.1667 19.5267 18.8238C20.6918 17.6597 20.8467 15.8786 20.8669 12.6042H17.973C17.0801 12.6042 16.8464 12.6189 16.6511 12.7087C16.455 12.7995 16.2918 12.9672 15.7106 13.6437L15.1561 14.2918L15.0754 14.3853C14.6152 14.9234 14.2504 15.3497 13.7462 15.5816C13.2421 15.8135 12.6811 15.8135 11.9734 15.8126H11.4335C10.7249 15.8126 10.1639 15.8144 9.65973 15.5816C9.15556 15.3497 8.79073 14.9234 8.33056 14.3853L8.24989 14.2918L7.69531 13.6447C7.11414 12.9663 6.95098 12.7995 6.75481 12.7097C6.55956 12.6189 6.32581 12.6042 5.43298 12.6042H2.53906C2.56015 15.8786 2.71323 17.6606 3.87831 18.8247Z" fill="#434345"/>
<path d="M19.5226 3.17525C18.1787 1.83325 16.0191 1.83325 11.6979 1.83325C7.37675 1.83325 5.21617 1.83325 3.87325 3.17525C2.53125 4.51909 2.53125 6.67875 2.53125 10.9999V11.2291H5.55167C6.25933 11.2291 6.82033 11.2273 7.3245 11.4601C7.82867 11.692 8.1935 12.1183 8.65367 12.6563L8.73433 12.7498L9.28892 13.397C9.87008 14.0753 10.0332 14.2422 10.2294 14.332C10.4247 14.4228 10.6584 14.4374 11.5512 14.4374H11.8446C12.7374 14.4374 12.9712 14.4228 13.1664 14.3329C13.3626 14.2422 13.5258 14.0744 14.1069 13.3979L14.6615 12.7498L14.7422 12.6563C15.2023 12.1183 15.5672 11.692 16.0713 11.4601C16.5755 11.2273 17.1365 11.2282 17.8451 11.2291H20.8646V10.9999C20.8646 6.67875 20.8655 4.51817 19.5226 3.17525Z" fill="#434345"/>
</svg>
