<svg width="25" height="25" viewBox="0 0 25 25" fill="none" xmlns="http://www.w3.org/2000/svg">
<path d="M3.20312 19.6052V7.60522H22.2031V19.6052C22.2031 20.7052 21.3031 21.6052 20.2031 21.6052H5.20312C4.10312 21.6052 3.20312 20.7052 3.20312 19.6052Z" fill="#434345"/>
<path d="M22.2031 5.60522V8.60522H3.20312V5.60522C3.20312 4.50522 4.10312 3.60522 5.20312 3.60522H20.2031C21.3031 3.60522 22.2031 4.50522 22.2031 5.60522Z" fill="#434345"/>
<path d="M17.2031 7.10522C18.0316 7.10522 18.7031 6.43365 18.7031 5.60522C18.7031 4.7768 18.0316 4.10522 17.2031 4.10522C16.3747 4.10522 15.7031 4.7768 15.7031 5.60522C15.7031 6.43365 16.3747 7.10522 17.2031 7.10522Z" fill="#434345"/>
<path d="M8.20312 7.10522C9.03155 7.10522 9.70312 6.43365 9.70312 5.60522C9.70312 4.7768 9.03155 4.10522 8.20312 4.10522C7.3747 4.10522 6.70312 4.7768 6.70312 5.60522C6.70312 6.43365 7.3747 7.10522 8.20312 7.10522Z" fill="#434345"/>
<path d="M17.2031 2.10522C16.6531 2.10522 16.2031 2.55522 16.2031 3.10522V5.60522C16.2031 6.15522 16.6531 6.60522 17.2031 6.60522C17.7531 6.60522 18.2031 6.15522 18.2031 5.60522V3.10522C18.2031 2.55522 17.7531 2.10522 17.2031 2.10522ZM8.20312 2.10522C7.65312 2.10522 7.20312 2.55522 7.20312 3.10522V5.60522C7.20312 6.15522 7.65312 6.60522 8.20312 6.60522C8.75312 6.60522 9.20312 6.15522 9.20312 5.60522V3.10522C9.20312 2.55522 8.75312 2.10522 8.20312 2.10522Z" fill="#BDBDBD"/>
<path d="M10.4766 18.255C10.4766 18.155 10.4766 18.005 10.5646 17.905C10.6526 17.805 10.7406 17.705 10.9166 17.655C11.0926 17.605 11.1806 17.505 11.3566 17.505C11.5326 17.455 11.7966 17.455 11.9726 17.455C12.1486 17.455 12.4126 17.455 12.5886 17.505L13.1166 17.655C13.2926 17.705 13.3806 17.805 13.4686 17.905C13.5566 18.005 13.5566 18.105 13.5566 18.255C13.5566 18.355 13.5566 18.505 13.4686 18.605C13.3806 18.705 13.2926 18.805 13.1166 18.855C12.9406 18.905 12.8526 19.005 12.5886 19.005C12.3246 19.005 12.3246 19.105 12.0606 19.105C11.7966 19.105 11.6206 19.105 11.4446 19.055C11.2686 19.005 11.0926 18.955 11.0046 18.905C10.8286 18.855 10.7406 18.755 10.6526 18.655C10.5646 18.505 10.4766 18.405 10.4766 18.255ZM13.2046 16.105H10.9166L10.5646 10.605H13.4686L13.2046 16.105Z" fill="#F9F9F9"/>
</svg>
