<svg width="23" height="16" viewBox="0 0 23 16" fill="none" xmlns="http://www.w3.org/2000/svg">
<path d="M14.7031 10C12.0331 10 6.70312 11.33 6.70312 14V16H22.7031V14C22.7031 11.33 17.3731 10 14.7031 10ZM5.70312 6H3.70312H0.703125V8H3.70312H5.70312H8.70312V6M14.7031 8C15.764 8 16.7814 7.57857 17.5316 6.82843C18.2817 6.07828 18.7031 5.06087 18.7031 4C18.7031 2.93913 18.2817 1.92172 17.5316 1.17157C16.7814 0.421427 15.764 0 14.7031 0C13.6423 0 12.6248 0.421427 11.8747 1.17157C11.1246 1.92172 10.7031 2.93913 10.7031 4C10.7031 5.06087 11.1246 6.07828 11.8747 6.82843C12.6248 7.57857 13.6423 8 14.7031 8Z" fill="#434345"/>
</svg>
