<svg width="19" height="18" viewBox="0 0 19 18" fill="none" xmlns="http://www.w3.org/2000/svg">
<g clip-path="url(#clip0_743_8864)">
<path fill-rule="evenodd" clip-rule="evenodd" d="M2.98478 8.75628C2.98478 12.4091 5.63318 14.8979 8.60798 15.4127C8.6889 15.4267 8.76626 15.4565 8.83566 15.5005C8.90505 15.5444 8.96511 15.6015 9.01241 15.6687C9.05972 15.7358 9.09333 15.8116 9.11134 15.8917C9.12935 15.9719 9.1314 16.0548 9.11738 16.1357C9.10335 16.2166 9.07352 16.294 9.0296 16.3634C8.98567 16.4328 8.92851 16.4928 8.86138 16.5401C8.79424 16.5874 8.71844 16.621 8.63831 16.639C8.55819 16.6571 8.4753 16.6591 8.39437 16.6451C4.90117 16.0403 1.73438 13.0955 1.73438 8.75628C1.73438 6.91188 2.57317 5.46228 3.55237 4.36068C4.25437 3.57108 5.05718 2.92908 5.70278 2.43828H3.73958C3.58045 2.43828 3.42783 2.37507 3.31531 2.26255C3.20279 2.15002 3.13958 1.99741 3.13958 1.83828C3.13958 1.67915 3.20279 1.52654 3.31531 1.41402C3.42783 1.3015 3.58045 1.23828 3.73958 1.23828H7.33958C7.4987 1.23828 7.65132 1.3015 7.76384 1.41402C7.87636 1.52654 7.93958 1.67915 7.93958 1.83828V5.43828C7.93958 5.59741 7.87636 5.75002 7.76384 5.86255C7.65132 5.97507 7.4987 6.03828 7.33958 6.03828C7.18045 6.03828 7.02783 5.97507 6.91531 5.86255C6.80279 5.75002 6.73958 5.59741 6.73958 5.43828V3.22308L6.73838 3.22548C6.05198 3.74148 5.21438 4.37388 4.48837 5.19108C3.63037 6.15588 2.98478 7.32348 2.98478 8.75628ZM16.3144 9.24228C16.3144 5.62788 13.7224 3.15468 10.786 2.60268C10.7041 2.58879 10.6259 2.55875 10.5558 2.5143C10.4857 2.46985 10.4251 2.41188 10.3776 2.34378C10.3302 2.27567 10.2968 2.1988 10.2793 2.11764C10.2619 2.03648 10.2608 1.95266 10.2761 1.87107C10.2914 1.78948 10.3228 1.71176 10.3684 1.64243C10.4141 1.5731 10.4731 1.51356 10.542 1.46728C10.6109 1.421 10.6883 1.3889 10.7698 1.37287C10.8512 1.35683 10.9351 1.35718 11.0164 1.37388C14.4652 2.02188 17.5648 4.94988 17.5648 9.24228C17.5648 11.0867 16.726 12.5351 15.7468 13.6379C15.0448 14.4275 14.242 15.0695 13.5964 15.5603H15.5596C15.7187 15.5603 15.8713 15.6235 15.9838 15.736C16.0964 15.8485 16.1596 16.0012 16.1596 16.1603C16.1596 16.3194 16.0964 16.472 15.9838 16.5845C15.8713 16.6971 15.7187 16.7603 15.5596 16.7603H11.9596C11.8004 16.7603 11.6478 16.6971 11.5353 16.5845C11.4228 16.472 11.3596 16.3194 11.3596 16.1603V12.5603C11.3596 12.4012 11.4228 12.2485 11.5353 12.136C11.6478 12.0235 11.8004 11.9603 11.9596 11.9603C12.1187 11.9603 12.2713 12.0235 12.3838 12.136C12.4964 12.2485 12.5596 12.4012 12.5596 12.5603V14.7743H12.562C13.2472 14.2559 14.086 13.6247 14.8108 12.8063C15.6688 11.8427 16.3144 10.6763 16.3144 9.24228Z" fill="#434345" stroke="#434345"/>
</g>
<defs>
<clipPath id="clip0_743_8864">
<rect width="18" height="18" fill="white" transform="translate(0.703125)"/>
</clipPath>
</defs>
</svg>
